<svg xmlns="http://www.w3.org/2000/svg" viewBox="-29.0 115.0 2997.0 835.0" role="img" aria-label="Canticle"><style>svg{color:#3B2F77}@media(prefers-color-scheme:dark){svg{color:#B3A4E6}}</style><g fill="currentColor"><path d="M263.0 890.0Q152.0 890.0 91.5 831.0Q31.0 772.0 31.0 678.0Q31.0 592.0 73.5 510.0Q116.0 428.0 181.0 359.0Q234.0 303.0 302.5 262.0Q371.0 221.0 446.5 198.0Q522.0 175.0 594.0 175.0Q651.0 175.0 697.0 190.5Q743.0 206.0 770.0 239.0Q797.0 272.0 797.0 325.0Q812.0 327.0 755.0 319.0Q755.0 254.0 711.0 224.0Q667.0 194.0 599.0 194.0Q522.0 194.0 446.5 223.0Q371.0 252.0 305.0 303.0Q239.0 354.0 187.0 420.0Q83.0 551.0 83.0 666.0Q83.0 727.0 111.0 769.5Q139.0 812.0 188.5 834.0Q238.0 856.0 302.0 856.0Q397.0 856.0 486.0 814.5Q575.0 773.0 638.0 703.0Q655.0 685.0 663.0 685.0Q669.0 685.0 669.0 694.0Q669.0 706.0 658.0 717.0Q624.0 753.0 577.0 784.0Q530.0 815.0 476.5 839.0Q423.0 863.0 368.0 876.5Q313.0 890.0 263.0 890.0Z"/><path d="M793.0 830.0Q769.0 830.0 745.0 813.0Q721.0 796.0 718.0 773.0Q708.0 696.0 815.0 590.0Q921.0 484.0 1006.0 484.0Q1029.0 484.0 1042.0 495.0Q1049.0 502.0 1052.5 514.0Q1056.0 526.0 1058.0 526.0Q1062.0 526.0 1065.0 524.5Q1068.0 523.0 1072.0 523.0Q1084.0 523.0 1093.0 532.0Q1102.0 541.0 1103.0 548.0Q1104.0 550.0 1039.0 647.0Q974.0 742.0 980.0 776.0Q985.0 799.0 1002.0 799.0Q1054.0 799.0 1192.0 627.0Q1195.0 623.0 1198.0 623.0Q1203.0 623.0 1203.0 630.0Q1203.0 638.0 1194.0 650.0Q1067.0 821.0 999.0 821.0Q990.0 821.0 982.0 818.0Q938.0 801.0 938.0 752.0Q938.0 735.0 942.0 718.0L880.0 778.0Q852.0 806.0 829.5 818.0Q807.0 830.0 793.0 830.0ZM784.0 808.0Q842.0 808.0 942.0 681.0L1048.0 535.0Q1040.0 521.0 1022.0 521.0Q961.0 521.0 857.0 619.0Q749.0 719.0 760.0 784.0Q765.0 808.0 784.0 808.0Z"/><path d="M1393.0 827.0Q1366.0 827.0 1355.0 811.5Q1344.0 796.0 1344.0 773.0Q1344.0 715.0 1384.0 649.0L1448.0 545.0Q1380.0 595.0 1313.0 670.0Q1295.0 690.0 1272.5 717.0Q1250.0 744.0 1223.0 779.0Q1187.0 826.0 1180.0 826.0Q1166.0 826.0 1157.0 813.5Q1148.0 801.0 1148.0 791.0Q1148.0 783.0 1153.0 761.5Q1158.0 740.0 1165.0 724.0Q1172.0 707.0 1179.5 690.5Q1187.0 674.0 1194.0 658.0L1134.0 721.0Q1132.0 723.0 1122.0 733.0Q1112.0 743.0 1106.0 743.0Q1101.0 743.0 1101.0 736.0Q1101.0 734.0 1102.5 730.5Q1104.0 727.0 1109.0 722.0Q1124.0 707.0 1140.0 690.0Q1156.0 673.0 1173.0 651.0Q1182.0 640.0 1200.0 617.5Q1218.0 595.0 1239.5 569.0Q1261.0 543.0 1280.0 521.0Q1285.0 514.0 1291.0 511.5Q1297.0 509.0 1299.0 509.0Q1326.0 509.0 1326.0 530.0Q1326.0 536.0 1323.0 542.0Q1233.0 666.0 1215.0 731.0Q1331.0 615.0 1401.5 556.5Q1472.0 498.0 1502.0 498.0Q1518.0 498.0 1526.5 503.0Q1535.0 508.0 1535.0 522.0Q1535.0 527.0 1534.0 530.0Q1531.0 537.0 1493.0 586.0Q1470.0 614.0 1452.5 637.0Q1435.0 660.0 1424.0 677.0Q1406.0 705.0 1397.0 729.5Q1388.0 754.0 1388.0 771.0Q1388.0 778.0 1390.0 788.0Q1392.0 798.0 1402.0 798.0Q1425.0 798.0 1474.0 758.0Q1497.0 738.0 1517.0 717.5Q1537.0 697.0 1555.0 677.0Q1559.0 673.0 1568.0 661.5Q1577.0 650.0 1579.0 650.0Q1583.0 650.0 1583.0 658.0Q1583.0 662.0 1578.5 671.5Q1574.0 681.0 1569.0 686.0Q1558.0 699.0 1536.5 722.0Q1515.0 745.0 1488.5 769.0Q1462.0 793.0 1437.0 810.0Q1412.0 827.0 1393.0 827.0Z"/><path d="M1603.0 831.0Q1571.0 831.0 1552.5 815.5Q1534.0 800.0 1534.0 760.0Q1534.0 737.0 1548.0 701.5Q1562.0 666.0 1583.0 625.0Q1604.0 584.0 1625.0 544.0Q1612.0 547.0 1602.0 547.0Q1572.0 547.0 1572.0 524.0Q1572.0 513.0 1580.5 507.0Q1589.0 501.0 1596.0 500.0Q1596.0 500.0 1598.5 500.0Q1601.0 500.0 1605.0 499.0H1663.0Q1681.0 476.0 1700.0 450.0Q1727.0 416.0 1743.0 410.0H1746.0Q1753.0 410.0 1766.0 417.0Q1782.0 426.0 1782.0 435.0Q1782.0 448.0 1734.0 502.0Q1743.0 503.0 1760.0 503.0Q1777.0 503.0 1802.0 503.0Q1814.0 503.0 1836.5 503.0Q1859.0 503.0 1883.5 502.5Q1908.0 502.0 1926.0 501.5Q1944.0 501.0 1946.0 501.0Q1949.0 502.0 1949.0 504.0Q1949.0 513.0 1831.0 528.0Q1764.0 537.0 1728.5 542.0Q1693.0 547.0 1690.0 548.0Q1676.0 560.0 1656.0 589.0Q1636.0 618.0 1616.0 654.0Q1596.0 690.0 1582.5 722.5Q1569.0 755.0 1569.0 773.0Q1569.0 789.0 1581.0 799.5Q1593.0 810.0 1620.0 810.0Q1638.0 810.0 1663.0 802.0Q1688.0 794.0 1710.5 783.5Q1733.0 773.0 1743.0 767.0Q1769.0 751.0 1800.5 724.5Q1832.0 698.0 1863.0 664.0Q1877.0 650.0 1882.0 650.0Q1885.0 650.0 1885.0 654.0Q1885.0 662.0 1870.0 680.0Q1846.0 709.0 1816.5 735.5Q1787.0 762.0 1751.0 784.0Q1710.0 809.0 1672.5 820.0Q1635.0 831.0 1603.0 831.0Z"/><path d="M1874.0 836.0Q1852.0 836.0 1837.5 821.5Q1823.0 807.0 1823.0 770.0Q1823.0 749.0 1832.5 721.5Q1842.0 694.0 1856.5 666.0Q1871.0 638.0 1885.0 616.0Q1941.0 525.0 1977.0 524.0Q1986.0 524.0 1999.0 531.5Q2012.0 539.0 2012.0 548.0Q2012.0 548.0 1936.0 646.0Q1861.0 743.0 1861.0 784.0Q1861.0 816.0 1886.0 816.0Q1902.0 816.0 1927.5 802.5Q1953.0 789.0 1981.0 768.0Q2009.0 747.0 2034.5 723.0Q2060.0 699.0 2076.0 679.0Q2086.0 666.0 2093.5 661.0Q2101.0 656.0 2103.0 656.0Q2107.0 656.0 2107.0 662.0Q2107.0 667.0 2095.5 682.0Q2084.0 697.0 2064.0 717.0Q2040.0 741.0 2011.0 769.0Q1982.0 797.0 1948.0 816.5Q1914.0 836.0 1874.0 836.0Z"/><path d="M2140.0 838.0Q2108.0 838.0 2082.0 817.5Q2056.0 797.0 2056.0 763.0Q2056.0 692.0 2143.0 601.0Q2232.0 509.0 2302.0 509.0Q2326.0 509.0 2340.0 521.5Q2354.0 534.0 2354.0 552.0Q2354.0 577.0 2342.0 598.0Q2328.0 624.0 2302.0 624.0Q2276.0 624.0 2276.0 608.0Q2276.0 597.0 2289.0 575.0Q2303.0 552.0 2303.0 551.0Q2303.0 549.0 2300.0 549.0Q2272.0 552.0 2222.0 590.0Q2200.0 607.0 2183.5 622.0Q2167.0 637.0 2157.0 651.0L2118.0 708.0Q2112.0 717.0 2105.5 739.0Q2099.0 761.0 2099.0 772.0Q2099.0 792.0 2112.5 805.0Q2126.0 818.0 2147.0 818.0Q2197.0 818.0 2279.0 753.0Q2345.0 701.0 2385.0 648.0Q2390.0 642.0 2397.0 642.0Q2404.0 642.0 2404.0 646.0Q2404.0 649.0 2399.0 656.0Q2344.0 729.0 2270.0 782.0Q2191.0 838.0 2140.0 838.0Z"/><path d="M2423.0 827.0Q2394.0 827.0 2369.0 812.5Q2344.0 798.0 2344.0 764.0Q2344.0 717.0 2377.5 652.0Q2411.0 587.0 2454.0 517.0Q2571.0 327.0 2620.0 327.0Q2630.0 327.0 2640.5 334.5Q2651.0 342.0 2652.0 351.0L2582.0 445.0Q2541.0 500.0 2508.0 546.5Q2475.0 593.0 2451.0 630.0Q2439.0 649.0 2424.0 673.0Q2409.0 697.0 2397.5 722.5Q2386.0 748.0 2386.0 774.0Q2386.0 786.0 2393.0 795.5Q2400.0 805.0 2418.0 805.0Q2450.0 805.0 2502.0 770.5Q2554.0 736.0 2605.0 675.0Q2610.0 669.0 2616.0 664.0Q2622.0 659.0 2626.0 659.0Q2631.0 659.0 2631.0 665.0Q2631.0 668.0 2624.5 676.5Q2618.0 685.0 2614.0 690.0L2590.0 717.0Q2570.0 739.0 2542.5 765.0Q2515.0 791.0 2484.5 809.0Q2454.0 827.0 2423.0 827.0Z"/><path d="M2641.0 838.0Q2609.0 838.0 2583.0 817.5Q2557.0 797.0 2557.0 763.0Q2557.0 692.0 2644.0 601.0Q2733.0 509.0 2803.0 509.0Q2826.0 509.0 2840.5 521.5Q2855.0 534.0 2855.0 552.0Q2855.0 608.0 2766.0 662.0Q2687.0 710.0 2633.0 710.0Q2625.0 710.0 2619.0 708.0Q2604.0 735.0 2604.0 765.0Q2604.0 817.0 2653.0 817.0Q2703.0 817.0 2782.0 750.0Q2843.0 701.0 2886.0 646.0Q2895.0 634.0 2902.0 634.0Q2908.0 634.0 2908.0 640.0Q2908.0 646.0 2900.0 657.0Q2872.0 694.0 2840.0 725.0Q2808.0 756.0 2771.0 782.0Q2694.0 838.0 2641.0 838.0ZM2647.0 688.0Q2685.0 688.0 2746.0 650.0Q2766.0 636.0 2785.5 618.5Q2805.0 601.0 2817.5 583.0Q2830.0 565.0 2830.0 551.0Q2830.0 538.0 2809.0 538.0Q2779.0 538.0 2725.0 583.0Q2699.0 605.0 2675.0 631.0Q2651.0 657.0 2634.0 686.0Q2640.0 688.0 2647.0 688.0Z"/></g><circle cx="2048" cy="453.0" r="21" fill="currentColor"/><path d="M 1968.0 468.0 A 80 80 0 0 1 2128.0 468.0 A 80 54 0 0 0 1968.0 468.0 Z" fill="currentColor"/></svg>
